<svg width="327" height="80" viewBox="0 0 327 80" fill="none" xmlns="http://www.w3.org/2000/svg">
<path d="M0 4C0 1.79086 1.79086 0 4 0H92C94.2091 0 96 1.79086 96 4V9.6H0V4Z" fill="#306476"/>
<path fill-rule="evenodd" clip-rule="evenodd" d="M0 12.8H96V77.6C96 78.9255 94.9255 80 93.6 80H2.4C1.07451 80 0 78.9255 0 77.6V12.8ZM27.3858 28.5858C28.1668 27.8047 29.4332 27.8047 30.2142 28.5858L43.2535 41.625L30.1892 54.2388C29.3946 55.006 28.1284 54.9838 27.3612 54.1892C26.594 53.3946 26.6162 52.1284 27.4108 51.3612L37.5465 41.575L27.3858 31.4142C26.6047 30.6332 26.6047 29.3668 27.3858 28.5858ZM44 50.8C42.8954 50.8 42 51.6954 42 52.8C42 53.9046 42.8954 54.8 44 54.8H68.8C69.9046 54.8 70.8 53.9046 70.8 52.8C70.8 51.6954 69.9046 50.8 68.8 50.8L44 50.8Z" fill="#306476"/>
<path d="M276 62.0703L299 62.0703" stroke="#EE6D4D" stroke-width="6" stroke-linecap="round"/>
<path d="M118.641 45.1641C117.906 45.4922 117.203 45.7344 116.531 45.8906C115.875 46.0469 115.219 46.125 114.562 46.125C113.047 46.125 111.781 45.5156 110.766 44.2969C109.766 43.0781 109.266 41.5312 109.266 39.6562C109.266 37.3281 109.953 35.4922 111.328 34.1484C112.719 32.7891 114.609 32.1094 117 32.1094C117.094 32.1094 117.227 32.1172 117.398 32.1328C117.586 32.1484 117.727 32.1562 117.82 32.1562C117.82 30.25 117.461 28.7734 116.742 27.7266C116.039 26.6797 115.039 26.1562 113.742 26.1562C111.711 26.1562 110.125 27.25 108.984 29.4375C107.859 31.6094 107.297 34.6797 107.297 38.6484C107.297 43.1016 107.953 46.4688 109.266 48.75C110.578 51.0312 112.516 52.1719 115.078 52.1719C115.781 52.1719 116.594 52.0391 117.516 51.7734C118.438 51.4922 119.016 51.3516 119.25 51.3516C119.672 51.3516 120 51.5234 120.234 51.8672C120.484 52.2109 120.609 52.6797 120.609 53.2734C120.609 54.2422 120.109 55 119.109 55.5469C118.125 56.1094 116.766 56.3906 115.031 56.3906C110.844 56.3906 107.648 54.9062 105.445 51.9375C103.258 48.9688 102.164 44.6484 102.164 38.9766C102.164 33.5859 103.211 29.3984 105.305 26.4141C107.398 23.4297 110.32 21.9375 114.07 21.9375C117.133 21.9375 119.359 22.8359 120.75 24.6328C122.156 26.4141 122.859 29.2734 122.859 33.2109V42C123.281 42.4219 123.586 42.8125 123.773 43.1719C123.961 43.5312 124.055 43.8906 124.055 44.25C124.055 44.8438 123.828 45.3359 123.375 45.7266C122.938 46.1172 122.383 46.3125 121.711 46.3125C121.367 46.3125 120.945 46.2266 120.445 46.0547C119.961 45.8672 119.359 45.5703 118.641 45.1641ZM117.82 41.7188V35.7656C117.711 35.75 117.602 35.7422 117.492 35.7422C117.398 35.7266 117.25 35.7188 117.047 35.7188C115.969 35.7188 115.102 36.0547 114.445 36.7266C113.805 37.3828 113.484 38.2578 113.484 39.3516C113.484 40.2578 113.703 40.9609 114.141 41.4609C114.578 41.9453 115.195 42.1875 115.992 42.1875C116.195 42.1875 116.445 42.1484 116.742 42.0703C117.039 41.9922 117.398 41.875 117.82 41.7188ZM141.211 36.7266C139.68 36.7266 138.406 37.2812 137.391 38.3906C136.391 39.5 135.891 40.9141 135.891 42.6328C135.891 44.3203 136.391 45.7188 137.391 46.8281C138.406 47.9219 139.68 48.4688 141.211 48.4688C142.758 48.4688 144.031 47.9219 145.031 46.8281C146.047 45.7188 146.555 44.3203 146.555 42.6328C146.555 40.9141 146.047 39.5 145.031 38.3906C144.031 37.2812 142.758 36.7266 141.211 36.7266ZM147.023 34.5234V33.3047C147.023 32.9922 147.133 32.7578 147.352 32.6016C147.586 32.4297 147.93 32.3438 148.383 32.3438H152.203C153.281 32.3438 154.039 32.5469 154.477 32.9531C154.914 33.3438 155.133 33.9922 155.133 34.8984C155.133 35.7422 154.914 36.3828 154.477 36.8203C154.055 37.2578 153.43 37.4766 152.602 37.4766H152.203V53.625C152.203 57.0469 151.273 59.5312 149.414 61.0781C147.555 62.625 144.57 63.3984 140.461 63.3984C137.914 63.3984 136.039 63.1484 134.836 62.6484C133.648 62.1484 133.055 61.3594 133.055 60.2812C133.055 59.5312 133.297 58.9219 133.781 58.4531C134.266 57.9844 134.906 57.75 135.703 57.75C135.906 57.75 136.578 57.8203 137.719 57.9609C138.859 58.1016 139.914 58.1719 140.883 58.1719C143.117 58.1719 144.656 57.75 145.5 56.9062C146.359 56.0625 146.789 54.5469 146.789 52.3594V51.3047C145.68 51.9453 144.578 52.4219 143.484 52.7344C142.406 53.0312 141.281 53.1797 140.109 53.1797C136.969 53.1797 134.398 52.2031 132.398 50.25C130.414 48.2812 129.422 45.7578 129.422 42.6797C129.422 39.5078 130.461 36.8984 132.539 34.8516C134.633 32.8047 137.305 31.7812 140.555 31.7812C141.961 31.7812 143.195 32.0078 144.258 32.4609C145.32 32.8984 146.242 33.5859 147.023 34.5234ZM164.672 44.5547C165.078 46.2891 165.859 47.5859 167.016 48.4453C168.188 49.3047 169.742 49.7344 171.68 49.7344C173.617 49.7344 175.531 49.2656 177.422 48.3281C179.312 47.375 180.453 46.8984 180.844 46.8984C181.422 46.8984 181.891 47.1172 182.25 47.5547C182.625 47.9766 182.812 48.5234 182.812 49.1953C182.812 50.6641 181.727 51.9297 179.555 52.9922C177.383 54.0547 174.695 54.5859 171.492 54.5859C167.711 54.5859 164.633 53.5234 162.258 51.3984C159.898 49.2734 158.719 46.5391 158.719 43.1953C158.719 39.8672 159.898 37.1406 162.258 35.0156C164.633 32.8906 167.711 31.8281 171.492 31.8281C174.867 31.8281 177.664 32.8281 179.883 34.8281C182.102 36.8125 183.211 39.25 183.211 42.1406C183.211 43.0625 182.984 43.6953 182.531 44.0391C182.094 44.3828 181.18 44.5547 179.789 44.5547H164.672ZM177.305 40.8984C177.039 39.4453 176.352 38.3203 175.242 37.5234C174.148 36.7266 172.719 36.3281 170.953 36.3281C169.25 36.3281 167.875 36.7109 166.828 37.4766C165.797 38.2266 165.078 39.3672 164.672 40.8984H177.305ZM198.82 41.2734V48.8672H204.352C205.414 48.8672 206.164 49.0625 206.602 49.4531C207.055 49.8438 207.281 50.4922 207.281 51.3984C207.281 52.3203 207.055 52.9844 206.602 53.3906C206.164 53.7969 205.414 54 204.352 54H191.25C190.172 54 189.406 53.7969 188.953 53.3906C188.5 52.9844 188.273 52.3203 188.273 51.3984C188.273 50.4922 188.492 49.8438 188.93 49.4531C189.383 49.0625 190.156 48.8672 191.25 48.8672H193.031V37.4766H192.023C190.961 37.4766 190.203 37.2812 189.75 36.8906C189.312 36.4844 189.094 35.8203 189.094 34.8984C189.094 33.9766 189.305 33.3203 189.727 32.9297C190.164 32.5391 190.93 32.3438 192.023 32.3438H197.016C197.438 32.3438 197.766 32.4375 198 32.625C198.234 32.7969 198.352 33.0391 198.352 33.3516V36.8203C200.055 34.9922 201.641 33.6875 203.109 32.9062C204.594 32.125 206.188 31.7344 207.891 31.7344C209.438 31.7344 210.664 32.0859 211.57 32.7891C212.477 33.4766 212.93 34.4062 212.93 35.5781C212.93 36.4844 212.617 37.2344 211.992 37.8281C211.367 38.4062 210.562 38.6953 209.578 38.6953C208.875 38.6953 208.039 38.4375 207.07 37.9219C206.117 37.4062 205.453 37.1484 205.078 37.1484C204.328 37.1484 203.445 37.4844 202.43 38.1562C201.414 38.8281 200.211 39.8672 198.82 41.2734ZM238.266 48.8672H238.641C239.484 48.8672 240.125 49.0938 240.562 49.5469C241.016 49.9844 241.242 50.6172 241.242 51.4453C241.242 52.3516 241.008 53.0078 240.539 53.4141C240.086 53.8047 239.328 54 238.266 54H236.062C235.281 54 234.695 53.8516 234.305 53.5547C233.93 53.2578 233.617 52.7188 233.367 51.9375C232.07 52.7969 230.695 53.4531 229.242 53.9062C227.789 54.3594 226.32 54.5859 224.836 54.5859C222.32 54.5859 220.344 53.9609 218.906 52.7109C217.469 51.4609 216.75 49.75 216.75 47.5781C216.75 45.2344 217.68 43.4141 219.539 42.1172C221.398 40.8203 224.008 40.1719 227.367 40.1719C228.117 40.1719 228.914 40.2109 229.758 40.2891C230.602 40.3672 231.547 40.4922 232.594 40.6641V40.2188C232.594 38.8125 232.25 37.7422 231.562 37.0078C230.891 36.2734 229.891 35.9062 228.562 35.9062C227.531 35.9062 226.211 36.2891 224.602 37.0547C223.008 37.8203 221.836 38.2031 221.086 38.2031C220.352 38.2031 219.758 37.9922 219.305 37.5703C218.852 37.1328 218.625 36.5625 218.625 35.8594C218.625 34.5938 219.547 33.5938 221.391 32.8594C223.25 32.1094 225.773 31.7344 228.961 31.7344C232.289 31.7344 234.672 32.375 236.109 33.6562C237.547 34.9375 238.266 37.1094 238.266 40.1719V48.8672ZM232.594 44.3438C231.812 44.1719 231.094 44.0469 230.438 43.9688C229.781 43.875 229.172 43.8281 228.609 43.8281C226.891 43.8281 225.539 44.1172 224.555 44.6953C223.586 45.2734 223.102 46.0703 223.102 47.0859C223.102 47.9922 223.414 48.6875 224.039 49.1719C224.664 49.6406 225.562 49.875 226.734 49.875C227.812 49.875 228.828 49.7188 229.781 49.4062C230.734 49.0938 231.672 48.6094 232.594 47.9531V44.3438ZM260.414 48.8672H265.453C266.531 48.8672 267.289 49.0625 267.727 49.4531C268.164 49.8438 268.383 50.4922 268.383 51.3984C268.383 52.3203 268.156 52.9844 267.703 53.3906C267.266 53.7969 266.516 54 265.453 54H249.562C248.516 54 247.766 53.7969 247.312 53.3906C246.875 52.9844 246.656 52.3203 246.656 51.3984C246.656 50.4766 246.867 49.8281 247.289 49.4531C247.727 49.0625 248.484 48.8672 249.562 48.8672H254.602V28.5234H252.023C250.961 28.5234 250.195 28.3203 249.727 27.9141C249.273 27.4922 249.047 26.8281 249.047 25.9219C249.047 25 249.273 24.3359 249.727 23.9297C250.18 23.5234 250.945 23.3203 252.023 23.3203H259.031C259.469 23.3203 259.805 23.4141 260.039 23.6016C260.289 23.7734 260.414 24.0156 260.414 24.3281V48.8672ZM296.344 48.8672H296.742C297.586 48.8672 298.219 49.0859 298.641 49.5234C299.062 49.9453 299.273 50.5703 299.273 51.3984C299.273 52.3203 299.047 52.9844 298.594 53.3906C298.156 53.7969 297.406 54 296.344 54H292.758C292.305 54 291.953 53.9141 291.703 53.7422C291.469 53.5547 291.352 53.3047 291.352 52.9922V51.3516C290.586 52.3984 289.602 53.2031 288.398 53.7656C287.195 54.3125 285.844 54.5859 284.344 54.5859C281.281 54.5859 278.719 53.5469 276.656 51.4688C274.594 49.375 273.562 46.7656 273.562 43.6406C273.562 40.3906 274.602 37.6953 276.68 35.5547C278.773 33.4141 281.43 32.3438 284.648 32.3438C285.758 32.3438 286.836 32.5312 287.883 32.9062C288.945 33.2656 289.914 33.7812 290.789 34.4531V28.5234H287.672C286.594 28.5234 285.828 28.3203 285.375 27.9141C284.922 27.4922 284.695 26.8281 284.695 25.9219C284.695 25 284.922 24.3359 285.375 23.9297C285.828 23.5234 286.594 23.3203 287.672 23.3203H294.961C295.492 23.3203 295.852 23.4297 296.039 23.6484C296.242 23.8672 296.344 24.2734 296.344 24.8672V48.8672ZM285.352 37.3359C283.82 37.3359 282.547 37.9141 281.531 39.0703C280.531 40.2109 280.031 41.6641 280.031 43.4297C280.031 45.2422 280.531 46.7266 281.531 47.8828C282.531 49.0234 283.805 49.5938 285.352 49.5938C286.898 49.5938 288.172 49.0156 289.172 47.8594C290.188 46.7031 290.695 45.2266 290.695 43.4297C290.695 41.6797 290.188 40.2266 289.172 39.0703C288.156 37.9141 286.883 37.3359 285.352 37.3359Z" fill="#306476"/>
</svg>
